<?xml version="1.0" encoding="UTF-8" standalone="no"?>
<svg
   version="1.0"
   width="1920.000000pt"
   height="2076.000000pt"
   viewBox="0 0 1920.000000 2076.000000"
   preserveAspectRatio="xMidYMid meet"
   id="svg3"
   sodipodi:docname="dr-logo-dracula.svg"
   inkscape:version="1.4.2 (ebf0e940d0, 2025-05-08)"
   xmlns:inkscape="http://www.inkscape.org/namespaces/inkscape"
   xmlns:sodipodi="http://sodipodi.sourceforge.net/DTD/sodipodi-0.dtd"
   xmlns="http://www.w3.org/2000/svg"
   xmlns:svg="http://www.w3.org/2000/svg">
  <defs
     id="defs3" />
  <sodipodi:namedview
     id="namedview3"
     pagecolor="#ffffff"
     bordercolor="#000000"
     borderopacity="0.25"
     inkscape:showpageshadow="2"
     inkscape:pageopacity="0.0"
     inkscape:pagecheckerboard="0"
     inkscape:deskcolor="#d1d1d1"
     inkscape:document-units="pt"
     inkscape:zoom="0.31033237"
     inkscape:cx="1279.2736"
     inkscape:cy="1384"
     inkscape:window-width="1908"
     inkscape:window-height="1068"
     inkscape:window-x="1926"
     inkscape:window-y="6"
     inkscape:window-maximized="1"
     inkscape:current-layer="svg3" />
  <g
     transform="translate(0.000000,2076.000000) scale(0.100000,-0.100000)"
     fill="#000000"
     stroke="none"
     id="g3"
     style="fill:#282a36;fill-opacity:1">
    <path
       d="M11472 20158 c-25 -47 -252 -286 -367 -386 -55 -48 -143 -120 -196 -160 -53 -39 -139 -109 -190 -155 -257 -227 -592 -440 -1008 -641 -450 -217 -593 -282 -741 -339 -254 -96 -587 -204 -854 -277 -143 -39 -274 -80 -292 -91 -46 -28 -177 -188 -207 -252 -170 -360 -333 -653 -504 -907 -38 -58 -82 -128 -96 -155 -14 -28 -40 -63 -57 -80 -18 -16 -64 -68 -104 -115 -222 -264 -333 -435 -376 -581 -22 -73 -39 -91 -66 -68 -35 29 11 232 88 384 49 98 79 145 188 293 29 40 50 75 47 78 -3 3 -37 -23 -74 -58 -38 -34 -124 -112 -192 -172 -163 -146 -171 -156 -171 -217 0 -59 -23 -268 -51 -464 -29 -205 -67 -387 -101 -495 -28 -89 -132 -308 -210 -445 -57 -101 -90 -178 -95 -220 -2 -25 6 -74 22 -130 33 -111 41 -163 27 -177 -26 -26 -101 65 -148 180 -13 31 -27 57 -33 57 -5 0 -35 -36 -65 -80 -58 -82 -75 -126 -136 -345 -48 -176 -156 -461 -200 -530 -14 -22 -38 -4 -82 61 -45 66 -88 176 -127 328 -17 62 -33 116 -36 119 -16 16 -25 -32 -40 -218 -24 -304 -30 -675 -15 -892 14 -210 19 -181 -79 -427 -53 -131 -101 -270 -101 -291 0 -4 41 -56 91 -116 135 -162 199 -250 199 -272 0 -37 -147 -275 -248 -401 -24 -30 -52 -72 -63 -93 -56 -109 -435 -522 -609 -663 -37 -29 -90 -81 -120 -116 -66 -77 -71 -81 -88 -67 -18 16 -152 203 -184 258 -14 25 -51 110 -82 190 -31 80 -62 156 -69 169 -23 45 -35 36 -40 -31 -2 -35 -10 -130 -17 -213 -20 -234 12 -505 90 -750 45 -143 183 -416 294 -585 53 -80 106 -160 118 -178 37 -57 118 -117 289 -215 162 -94 273 -147 304 -147 28 0 -10 55 -104 155 -89 93 -85 127 8 90 60 -23 188 -51 197 -43 3 4 -11 56 -32 115 -34 95 -39 119 -39 197 l0 88 57 52 c31 28 66 70 77 92 26 54 74 83 158 96 53 8 73 16 90 37 13 14 23 31 23 37 0 16 67 75 133 119 72 48 136 55 226 26 95 -31 201 -23 201 15 0 7 -20 51 -45 98 -53 101 -59 152 -21 162 21 5 262 -20 294 -31 24 -8 12 21 -29 70 -40 48 -79 117 -93 162 -10 32 59 103 158 162 186 110 302 183 326 205 36 32 62 47 286 166 322 171 356 193 476 312 101 101 113 117 182 247 40 76 99 196 131 267 32 71 71 156 87 188 80 158 294 384 404 426 123 46 332 61 532 39 96 -10 147 -29 139 -52 -4 -13 -6 -14 -162 -51 -152 -36 -224 -74 -310 -161 -38 -40 -85 -96 -102 -126 -32 -53 -117 -266 -189 -472 -35 -98 -76 -177 -93 -177 -13 0 -26 20 -46 74 -23 63 -153 203 -179 193 -15 -6 -16 -22 -11 -150 4 -111 2 -159 -10 -212 -19 -81 -50 -145 -70 -145 -7 0 -44 34 -82 75 -37 41 -72 75 -77 75 -4 0 -6 -26 -4 -57 6 -68 -13 -177 -40 -230 -33 -63 -157 -174 -254 -226 -48 -26 -94 -47 -102 -47 -12 0 -66 59 -128 142 -17 22 -18 22 -32 5 -8 -10 -19 -48 -26 -85 -18 -107 -49 -196 -80 -233 l-28 -34 -57 29 c-31 16 -76 45 -101 63 -25 19 -48 32 -52 29 -3 -4 -1 -27 6 -51 15 -56 15 -122 1 -163 -7 -22 -77 -91 -222 -221 -117 -103 -282 -263 -367 -355 -85 -91 -158 -166 -162 -166 -4 0 -30 9 -58 20 -84 33 -98 23 -61 -42 32 -55 46 -167 32 -245 -15 -80 -47 -160 -70 -173 -28 -14 -73 19 -127 93 -35 48 -63 61 -65 30 -4 -69 7 -112 47 -199 24 -53 42 -99 39 -104 -9 -15 -55 -20 -78 -9 -12 6 -38 30 -58 52 -43 49 -59 43 -59 -21 1 -74 32 -115 164 -217 161 -125 178 -185 201 -697 8 -194 17 -363 20 -375 9 -37 21 -27 46 34 58 148 166 336 248 431 58 69 228 197 323 244 150 74 325 108 553 108 128 0 146 2 184 22 57 31 193 148 188 162 -4 12 -9 12 -164 -5 -100 -11 -120 -11 -194 5 -99 21 -151 45 -202 95 -43 40 -66 79 -78 130 -19 85 78 274 236 461 87 103 279 288 343 332 26 17 70 50 97 73 192 159 500 332 730 412 214 73 457 104 675 84 211 -18 461 -84 639 -167 52 -24 100 -44 107 -44 24 0 15 32 -32 119 -58 109 -132 209 -190 256 -54 45 -144 150 -144 170 0 21 29 33 111 46 85 13 232 3 554 -37 411 -52 697 -27 987 85 103 40 169 74 255 132 89 60 98 73 46 62 -99 -21 -376 3 -538 47 -161 44 -217 68 -520 224 -27 14 -54 26 -59 26 -25 0 -154 101 -228 178 -149 157 -210 287 -211 452 -1 129 21 201 77 256 143 137 547 289 932 349 231 36 669 38 1030 5 127 -12 157 -22 152 -48 -4 -19 -54 -22 -653 -41 -295 -9 -331 -12 -467 -40 -81 -17 -177 -42 -213 -56 -162 -61 -312 -163 -461 -317 -83 -85 -93 -99 -115 -165 -12 -40 -20 -76 -16 -79 10 -10 44 15 144 108 50 46 119 99 153 118 34 19 102 61 152 94 110 71 186 106 342 157 140 46 271 74 415 89 149 15 241 13 241 -4 0 -21 -19 -32 -107 -65 -85 -31 -184 -79 -218 -104 -28 -21 -15 -24 136 -31 138 -6 297 -31 484 -75 66 -16 140 -32 165 -36 143 -23 462 -170 685 -315 77 -50 141 -87 143 -82 1 5 -4 40 -12 78 -8 38 -26 121 -40 185 -13 64 -41 157 -60 208 -20 51 -36 99 -36 107 0 17 44 19 58 2 5 -7 40 -84 77 -171 62 -147 90 -238 130 -429 18 -85 68 -169 176 -298 157 -187 294 -492 347 -774 20 -111 23 -443 5 -612 -10 -90 -70 -365 -98 -449 -16 -47 74 69 125 161 30 55 73 128 96 164 94 147 199 386 259 590 21 69 41 133 46 143 10 18 34 23 43 8 5 -7 -20 -216 -45 -370 -49 -310 -128 -536 -344 -987 -122 -253 -374 -603 -586 -814 -253 -251 -338 -327 -512 -458 -235 -176 -405 -285 -438 -280 -18 3 -17 8 19 83 25 50 64 107 106 153 36 40 66 75 66 77 0 14 -26 -2 -101 -63 -46 -38 -106 -84 -134 -102 -174 -117 -450 -335 -669 -529 -71 -62 -197 -125 -466 -234 -201 -81 -326 -124 -335 -115 -12 12 68 294 105 373 21 44 68 123 105 175 74 103 83 120 66 120 -17 0 -167 -147 -209 -204 -20 -28 -74 -94 -120 -146 -84 -95 -268 -325 -392 -489 -73 -96 -95 -110 -423 -276 -243 -124 -429 -225 -531 -289 -86 -54 -192 -96 -241 -96 -33 0 -37 20 -26 161 14 188 52 318 142 490 118 224 218 382 318 504 41 49 77 92 81 95 3 3 29 32 58 66 48 56 66 91 43 82 -18 -6 -303 -272 -335 -312 -18 -23 -66 -84 -107 -136 -42 -52 -103 -130 -137 -173 -168 -212 -313 -542 -387 -877 -15 -69 -31 -135 -35 -147 -11 -28 -89 -91 -440 -355 -276 -208 -307 -235 -480 -413 -102 -104 -215 -221 -250 -260 -36 -38 -117 -124 -180 -190 -149 -154 -201 -217 -235 -284 -43 -87 -242 -372 -371 -531 -43 -53 -77 -117 -69 -130 6 -9 167 -64 415 -140 477 -146 1192 -282 1610 -306 52 -3 150 -9 218 -14 165 -13 705 -13 832 1 114 11 131 6 113 -34 -8 -17 -25 -28 -56 -35 -123 -32 -877 -68 -1187 -57 -552 18 -927 64 -1300 160 -262 68 -763 243 -945 330 -38 18 -155 75 -260 126 -104 50 -240 113 -302 138 -114 48 -182 89 -496 296 -203 134 -342 238 -462 346 -44 39 -116 96 -160 127 -108 74 -495 461 -562 562 -28 41 -83 111 -123 155 -137 153 -381 490 -536 740 -28 44 -71 127 -96 185 -25 58 -94 211 -153 340 -188 413 -230 525 -329 889 -29 104 -53 172 -65 184 -20 20 -20 20 -28 -9 -4 -16 -8 -189 -8 -384 0 -354 0 -356 32 -545 35 -208 61 -328 129 -597 47 -190 53 -260 28 -314 -22 -47 -60 -64 -138 -64 -80 0 -154 15 -225 46 -64 29 -90 32 -71 9 7 -8 18 -15 25 -15 8 0 15 -3 17 -7 12 -29 183 -158 409 -308 145 -97 296 -203 334 -235 122 -101 752 -722 806 -795 28 -38 93 -119 144 -180 50 -60 136 -168 191 -240 54 -71 124 -162 155 -202 133 -168 243 -374 270 -507 41 -196 12 -283 -104 -318 -30 -9 -118 -13 -299 -13 -145 1 -254 -3 -251 -8 16 -26 250 -113 529 -195 221 -66 292 -84 519 -132 191 -41 705 -172 845 -215 41 -13 105 -31 141 -39 142 -32 591 -218 776 -320 268 -149 584 -370 627 -438 13 -22 -13 -52 -75 -83 -81 -41 -156 -55 -304 -55 -149 0 -158 -6 -72 -44 293 -129 695 -178 1577 -192 1115 -18 1971 76 3085 341 77 18 178 41 225 50 367 74 1187 396 1622 636 69 38 163 85 208 104 89 37 236 117 365 199 86 55 479 334 634 450 52 39 116 85 142 101 26 17 121 100 211 185 428 405 566 538 605 580 193 207 408 451 506 573 112 139 167 197 188 197 32 0 85 -158 100 -300 15 -144 6 -539 -15 -670 -21 -133 -67 -311 -119 -470 -25 -74 -43 -137 -41 -139 37 -41 366 666 443 954 67 251 129 620 166 995 8 85 24 243 35 350 12 107 27 263 36 345 8 83 26 238 40 345 14 107 33 267 44 355 28 225 49 387 54 410 9 36 65 445 91 654 27 219 37 279 91 526 44 198 62 259 87 286 17 18 21 19 40 6 12 -8 27 -25 34 -38 24 -50 65 -209 88 -344 42 -256 42 -349 -5 -760 -11 -99 -23 -198 -26 -220 -5 -36 -4 -38 9 -25 23 23 100 201 140 325 43 132 67 227 101 400 51 264 51 264 51 650 -1 389 -13 552 -56 764 -35 172 -20 265 65 379 70 95 113 105 203 45 104 -69 323 -310 453 -498 56 -82 147 -278 189 -406 94 -292 179 -599 203 -734 9 -50 17 -70 28 -70 12 0 16 21 18 120 7 291 -66 731 -182 1093 -24 75 -56 177 -71 226 -34 112 -121 312 -189 436 -171 308 -457 737 -695 1040 -128 164 -196 268 -265 407 -143 286 -244 570 -331 928 -72 299 -85 371 -85 486 0 142 21 183 133 266 l47 35 84 -36 c46 -20 89 -36 96 -36 23 0 111 -49 173 -97 85 -66 270 -245 314 -306 20 -27 112 -138 205 -246 170 -198 316 -396 405 -550 44 -76 73 -109 73 -82 0 16 -164 410 -205 491 -134 267 -443 762 -598 960 -158 201 -430 489 -537 570 -25 18 -76 63 -115 100 -91 86 -190 166 -345 275 -220 156 -304 219 -355 266 -27 25 -88 72 -135 104 -151 104 -498 387 -648 528 -111 105 -166 150 -277 227 -200 139 -381 308 -356 333 5 5 67 14 138 19 301 24 526 -37 1008 -272 88 -43 176 -85 196 -93 20 -8 70 -39 110 -69 227 -167 220 -143 -27 107 -174 176 -270 261 -434 382 -166 123 -426 290 -485 312 -189 71 -721 358 -797 430 -59 56 -58 202 2 321 54 105 207 291 292 354 157 118 468 224 837 286 62 11 116 21 118 24 11 10 -40 26 -137 42 -68 11 -187 18 -340 21 -528 10 -886 -54 -1385 -247 -106 -41 -547 -197 -690 -245 -158 -52 -394 -80 -482 -56 -48 13 -99 60 -121 111 -26 61 -27 201 -3 318 61 294 268 685 501 947 34 39 66 78 71 87 19 35 -9 25 -66 -24 -80 -68 -152 -121 -195 -143 -95 -48 -338 -263 -373 -330 -8 -17 -18 -53 -22 -80 -39 -284 -169 -664 -323 -939 -86 -153 -390 -544 -519 -667 -91 -87 -208 -177 -272 -209 -51 -26 -359 -238 -412 -284 -20 -17 -78 -63 -130 -103 -140 -107 -334 -316 -386 -416 -40 -78 -65 -173 -67 -255 -1 -67 3 -83 26 -122 30 -52 71 -85 130 -106 51 -18 391 -39 858 -54 439 -13 741 -30 763 -42 14 -7 15 -13 7 -28 -10 -19 -22 -20 -168 -20 -209 -1 -530 -16 -733 -36 -90 -8 -299 -18 -464 -21 -334 -6 -407 0 -489 45 -60 33 -145 132 -189 222 -31 63 -32 68 -32 200 1 130 2 138 33 211 18 42 48 94 66 115 18 22 48 64 68 94 59 93 178 189 513 414 104 71 206 141 225 158 19 16 69 51 110 77 155 98 573 485 645 596 18 29 55 77 82 107 123 136 225 294 374 583 86 167 184 393 174 403 -5 5 -48 -28 -185 -144 -47 -39 -134 -102 -195 -139 -60 -37 -150 -95 -200 -129 -112 -78 -259 -156 -439 -236 -209 -92 -301 -140 -476 -245 -87 -52 -162 -95 -167 -95 -4 0 -37 -21 -73 -46 -36 -25 -80 -54 -98 -66 -18 -11 -31 -23 -28 -25 2 -3 53 11 113 30 212 69 439 136 493 147 30 6 133 36 228 67 127 41 176 53 184 45 27 -27 -58 -75 -247 -142 -66 -23 -178 -70 -250 -105 -71 -35 -220 -98 -330 -139 -110 -41 -243 -92 -295 -115 -120 -50 -508 -251 -626 -324 -49 -30 -113 -66 -141 -81 -29 -14 -99 -68 -155 -119 -168 -152 -410 -376 -456 -423 -45 -45 -69 -54 -78 -30 -3 8 9 70 26 137 32 124 93 271 153 364 86 136 368 448 487 540 177 136 407 262 565 309 125 38 242 96 305 153 46 41 118 121 184 204 11 13 45 53 76 89 138 160 293 372 507 695 80 121 167 252 193 290 26 39 77 122 112 185 36 63 81 141 101 172 20 31 33 59 29 62 -5 3 -80 -67 -168 -155 -87 -89 -193 -188 -234 -222 -133 -108 -233 -198 -300 -266 -103 -105 -476 -381 -648 -480 -37 -21 -141 -83 -232 -138 -91 -55 -248 -147 -350 -203 -102 -57 -203 -115 -225 -130 -22 -15 -85 -53 -139 -85 -54 -32 -125 -75 -157 -97 -32 -21 -99 -60 -149 -87 -126 -69 -195 -127 -352 -297 -216 -236 -378 -452 -485 -647 -36 -67 -92 -167 -123 -222 -31 -55 -69 -126 -84 -157 -27 -58 -48 -80 -241 -260 -162 -152 -363 -298 -409 -298 -20 0 -20 3 4 50 29 58 46 137 80 395 38 282 65 443 86 514 32 110 80 168 78 95 0 -16 -10 -94 -22 -174 -12 -80 -24 -188 -28 -241 -7 -99 -1 -119 31 -101 25 13 103 122 137 191 29 57 32 74 36 175 3 76 -1 138 -12 197 -9 47 -16 106 -16 132 0 41 3 47 24 53 36 9 46 -2 46 -49 0 -23 5 -58 10 -77 49 -163 57 -215 49 -286 -11 -84 -78 -288 -120 -360 -28 -50 -37 -85 -21 -83 10 0 118 138 172 218 74 111 103 185 103 271 0 57 -5 87 -22 125 -50 110 -61 155 -61 254 0 116 15 187 76 375 39 121 53 153 93 202 26 33 80 106 121 164 125 175 383 492 444 545 32 28 83 73 114 101 65 59 210 153 327 211 187 94 523 235 685 288 190 63 232 81 342 151 73 47 103 74 116 106 4 10 167 179 362 376 195 198 380 387 410 422 100 116 274 326 355 431 44 57 98 126 120 153 86 108 235 363 235 404 0 9 14 40 30 67 30 51 38 85 20 85 -6 0 -19 -14 -28 -32z m-1522 -1578 c0 -25 -97 -181 -168 -268 -60 -75 -160 -123 -342 -163 -47 -10 -112 -27 -144 -39 -44 -15 -62 -17 -72 -9 -19 16 -9 27 49 53 86 38 295 153 376 208 42 27 117 90 167 139 57 56 99 89 113 89 11 0 21 -5 21 -10z m-3074 -3455 c15 -62 -17 -228 -61 -316 -59 -116 -208 -282 -320 -357 -38 -26 -109 -84 -157 -129 -87 -82 -101 -92 -113 -73 -14 23 79 140 158 199 91 67 302 341 374 486 29 57 54 128 67 188 8 36 43 37 52 2z m2580 -242 c-4 -21 -13 -74 -21 -118 -33 -199 -70 -293 -124 -323 -20 -12 -56 -44 -80 -72 -29 -35 -50 -50 -67 -50 -17 0 -24 5 -24 20 0 29 88 326 110 372 23 47 114 157 155 186 46 33 59 29 51 -15z m2492 -629 c50 -6 61 -10 66 -27 7 -30 -7 -35 -89 -35 -89 -1 -384 -59 -515 -103 -208 -69 -414 -201 -519 -333 -32 -41 -65 -92 -71 -112 -32 -95 24 -232 151 -374 45 -51 107 -110 136 -131 39 -29 53 -46 53 -64 0 -15 -6 -25 -14 -25 -8 0 -82 34 -165 75 -341 170 -392 185 -885 264 -65 11 -123 24 -128 29 -25 25 172 225 342 347 170 123 420 286 495 323 170 84 389 147 563 161 121 10 499 13 580 5z m-4191 -441 c9 -22 -22 -45 -131 -100 -69 -35 -105 -61 -159 -116 -115 -119 -167 -205 -213 -352 -24 -78 -35 -97 -78 -141 -49 -48 -151 -121 -248 -177 -38 -22 -49 -35 -57 -65 -5 -20 -24 -95 -41 -167 -39 -159 -79 -264 -129 -341 -46 -71 -87 -110 -123 -119 -35 -9 -36 6 -6 55 48 79 77 138 92 189 9 30 16 57 16 60 0 15 -25 -25 -60 -98 -25 -52 -60 -104 -95 -141 -47 -49 -65 -60 -118 -75 -70 -19 -212 -92 -271 -139 -34 -27 -147 -171 -238 -306 -29 -41 -54 -51 -64 -25 -4 9 12 54 35 102 58 121 82 217 68 271 -14 54 0 108 55 217 60 120 113 188 244 315 120 117 290 237 410 291 27 12 74 32 104 46 182 82 339 211 374 308 27 77 93 205 131 257 46 62 138 134 199 156 27 9 101 38 165 64 64 25 120 47 124 47 4 1 10 -6 14 -16z m-2053 -1542 c21 -69 50 -95 116 -107 43 -8 83 -31 75 -44 -8 -13 -150 -13 -197 0 -45 13 -98 71 -98 108 0 15 9 46 20 70 16 35 24 43 42 40 17 -2 26 -16 42 -67z m-165 -485 c15 -18 0 -49 -103 -206 -102 -157 -104 -160 -126 -160 -29 0 -26 35 11 127 53 134 103 208 164 241 27 15 40 15 54 -2z m-1161 -1472 c12 -8 29 -29 38 -45 19 -38 9 -72 -56 -189 -26 -47 -54 -102 -61 -123 -28 -80 -60 -66 -105 44 -47 115 -26 259 45 306 40 27 106 31 139 7z m11304 -2935 c-9 -65 -66 -190 -254 -554 -146 -282 -180 -341 -293 -515 -239 -369 -660 -702 -942 -745 -48 -7 -171 -16 -273 -19 -191 -7 -264 -13 -535 -48 -302 -39 -552 -103 -941 -243 -132 -48 -539 -236 -814 -378 -262 -135 -634 -380 -863 -569 -144 -119 -270 -210 -337 -243 -72 -36 -235 -134 -445 -267 -93 -60 -176 -107 -184 -106 -31 6 -20 30 47 101 38 40 77 89 87 108 33 66 98 139 164 186 36 26 100 77 141 113 41 36 125 106 185 155 61 49 151 124 200 165 192 162 319 246 525 348 80 39 186 96 235 127 173 106 274 153 763 351 232 94 394 150 654 225 310 89 727 238 875 312 26 14 87 41 136 61 197 81 486 236 595 319 31 23 86 57 122 75 78 38 202 129 364 266 164 140 178 153 234 221 27 33 123 134 214 225 90 91 192 202 226 246 74 98 91 116 106 111 6 -2 10 -15 8 -28z"
       id="path1"
       style="fill:#282a36;fill-opacity:1" />
    <path
       d="M6377 12588 c-3 -7 -2 -48 1 -90 4 -62 2 -82 -12 -103 -31 -47 -56 -24 -56 52 0 17 -4 35 -10 38 -13 8 -13 -99 0 -146 6 -20 17 -42 25 -49 36 -29 94 52 103 143 7 68 -35 196 -51 155z"
       id="path2"
       style="fill:#282a36;fill-opacity:1" />
    <path
       d="M4846 17200 c-63 -47 -110 -78 -276 -185 -84 -53 -136 -87 -260 -167 -47 -30 -143 -92 -213 -136 -248 -158 -604 -436 -812 -634 -52 -50 -121 -111 -152 -135 -172 -132 -433 -395 -561 -563 -27 -36 -82 -99 -123 -140 -410 -413 -952 -1259 -1186 -1850 -102 -257 -121 -311 -158 -456 -20 -77 -56 -213 -81 -304 -109 -396 -188 -784 -226 -1115 -18 -155 -18 -1037 0 -1200 29 -263 116 -703 207 -1045 50 -190 75 -262 93 -268 6 -2 10 2 8 10 -3 7 -14 65 -26 128 -12 63 -28 147 -35 185 -41 204 -82 630 -95 979 -8 240 -8 314 5 628 7 183 33 386 75 603 21 110 48 252 60 315 41 225 86 318 183 381 56 36 141 80 237 121 l35 16 -72 67 c-106 98 -115 122 -115 302 0 117 5 165 21 229 45 178 236 573 366 759 23 33 68 107 100 165 52 95 87 147 208 308 22 29 75 88 118 132 91 91 163 131 281 155 99 19 278 19 374 -1 42 -8 78 -13 81 -10 3 3 -12 63 -33 133 -37 122 -39 134 -38 263 0 196 27 286 147 495 57 101 135 218 206 310 34 44 79 105 101 136 22 32 169 185 327 341 436 430 512 501 583 548 36 24 130 92 210 150 80 59 198 143 262 188 169 117 281 212 250 212 -5 0 -39 -22 -76 -50z"
       id="path3"
       style="fill:#282a36;fill-opacity:1" />
  </g>
</svg>
